<svg xmlns="http://www.w3.org/2000/svg" xmlns:xlink="http://www.w3.org/1999/xlink" width="48.092" height="47.596" viewBox="0 0 48.092 47.596">
  <defs>
    <clipPath id="clip-path">
      <rect id="Rectangle_16" data-name="Rectangle 16" width="48.092" height="47.596" transform="translate(0 0)" fill="#d0e6ec"/>
    </clipPath>
  </defs>
  <g id="Group_5" data-name="Group 5" clip-path="url(#clip-path)">
    <path id="Path_6" data-name="Path 6" d="M23.92,0A23.92,23.92,0,1,0,47.84,23.92,23.92,23.92,0,0,0,23.92,0M35.327,15.555c-.069.968-.622,4.355-1.175,8.019L32.424,34.428s-.138,1.59-1.316,1.867S28,35.327,27.652,35.05c-.276-.207-5.185-3.318-6.983-4.839A1.31,1.31,0,0,1,20.738,28C23.227,25.717,26.2,22.883,28,21.085c.83-.83,1.659-2.765-1.8-.415l-9.748,6.568a4.063,4.063,0,0,1-3.18.069c-2.074-.622-4.494-1.452-4.494-1.452s-1.659-1.037,1.175-2.143h0l16.108-6.637c1.59-.691,6.983-2.9,6.983-2.9s2.489-.968,2.281,1.383" transform="translate(0.125 -0.122)" fill="#d0e6ec"/>
  </g>
</svg>
