<svg xmlns="http://www.w3.org/2000/svg" xmlns:xlink="http://www.w3.org/1999/xlink" width="47.581" height="47.58" viewBox="0 0 47.581 47.58">
  <defs>
    <clipPath id="clip-path">
      <rect id="Rectangle_15" data-name="Rectangle 15" width="47.581" height="47.581" fill="#d0e6ec"/>
    </clipPath>
  </defs>
  <g id="Group_3" data-name="Group 3" clip-path="url(#clip-path)">
    <path id="Path_5" data-name="Path 5" d="M23.787,0A23.79,23.79,0,1,0,47.581,23.788,23.817,23.817,0,0,0,23.787,0M34.4,18.347c.008.234.013.472.013.711A15.573,15.573,0,0,1,10.444,32.173a11.01,11.01,0,0,0,8.108-2.265,5.483,5.483,0,0,1-5.113-3.8,5.27,5.27,0,0,0,1.029.1,5.414,5.414,0,0,0,1.441-.192,5.476,5.476,0,0,1-4.393-5.366.364.364,0,0,1,0-.071A5.405,5.405,0,0,0,14,21.256a5.479,5.479,0,0,1-1.7-7.308A15.545,15.545,0,0,0,23.586,19.67a5.48,5.48,0,0,1,9.33-5A10.832,10.832,0,0,0,36.4,13.345a5.5,5.5,0,0,1-2.41,3.032,10.853,10.853,0,0,0,3.144-.86,11.14,11.14,0,0,1-2.727,2.83" fill="#d0e6ec"/>
  </g>
</svg>
