<?xml version="1.0" standalone="no"?>
<!DOCTYPE svg PUBLIC "-//W3C//DTD SVG 20010904//EN"
 "http://www.w3.org/TR/2001/REC-SVG-20010904/DTD/svg10.dtd">
<svg version="1.0" xmlns="http://www.w3.org/2000/svg"
 width="250.000000pt" height="250.000000pt" viewBox="0 0 250.000000 250.000000"
 preserveAspectRatio="xMidYMid meet">
<metadata>
Created by potrace 1.14, written by Peter Selinger 2001-2017
</metadata>
<g transform="translate(0.000000,250.000000) scale(0.100000,-0.100000)"
fill="#000000" stroke="none">
<path d="M1225 2400 c-3 -5 -13 -7 -23 -4 -13 5 -14 4 -3 -4 16 -12 -3 -27
-21 -16 -6 4 -8 3 -5 -3 8 -13 -40 -46 -54 -38 -5 4 -8 1 -7 -7 2 -7 -3 -12
-9 -10 -7 1 -13 -3 -13 -9 0 -6 -7 -9 -15 -5 -8 3 -15 1 -15 -4 0 -6 -6 -10
-14 -10 -8 0 -17 -7 -20 -16 -3 -8 -10 -12 -16 -9 -5 3 -10 -1 -10 -10 0 -9
-5 -13 -11 -10 -6 4 -8 14 -5 22 3 8 1 11 -5 8 -5 -4 -8 -12 -6 -18 4 -12 -16
-37 -28 -37 -4 0 -14 -7 -22 -16 -9 -8 -24 -13 -34 -11 -11 3 -16 0 -13 -7 4
-10 -43 -41 -54 -37 -1 1 -12 -8 -24 -19 -12 -11 -28 -18 -36 -15 -7 2 -10 0
-7 -5 4 -6 -7 -13 -24 -16 -19 -4 -31 -13 -31 -22 0 -8 -3 -13 -6 -9 -9 8 -33
-16 -26 -27 3 -5 0 -6 -7 -2 -6 4 -18 2 -26 -4 -8 -6 -19 -9 -25 -5 -5 3 -10
-1 -10 -9 0 -10 -6 -13 -15 -9 -10 3 -15 1 -13 -8 2 -7 -5 -15 -16 -17 -11 -2
-16 0 -12 6 3 6 1 14 -6 18 -7 4 -10 4 -6 -1 4 -4 2 -15 -5 -23 -10 -13 -9
-15 3 -8 8 4 6 0 -4 -8 -16 -13 -22 -13 -28 -3 -6 9 -8 8 -8 -4 0 -19 -41 -49
-67 -49 -10 0 -31 -15 -47 -32 -16 -18 -29 -32 -30 -30 0 2 -9 0 -18 -3 -10
-4 -15 -12 -12 -19 3 -6 -2 -2 -12 9 -14 17 -16 17 -11 3 4 -10 2 -18 -4 -18
-6 0 -7 -4 -4 -10 3 -6 -1 -7 -9 -4 -9 3 -13 10 -10 15 3 5 0 9 -6 9 -6 0 -8
-11 -6 -24 4 -20 1 -24 -15 -21 -17 3 -24 -5 -20 -27 5 -35 13 -111 15 -143 2
-22 6 -48 11 -58 4 -10 8 -34 9 -53 0 -19 6 -34 11 -34 6 0 3 -5 -5 -10 -12
-8 -12 -10 -1 -10 8 0 12 -3 9 -6 -4 -3 -2 -19 3 -36 6 -21 5 -36 -3 -45 -9
-11 -7 -12 8 -7 10 4 16 4 12 -1 -4 -4 -3 -16 3 -26 6 -13 6 -19 -1 -19 -5 0
-10 -5 -10 -11 0 -5 4 -8 9 -5 5 3 8 -8 7 -24 -1 -17 1 -30 5 -30 4 0 9 -18
11 -41 3 -29 -1 -43 -12 -49 -10 -6 -11 -10 -2 -10 6 0 12 -11 12 -24 0 -13 5
-26 10 -28 6 -2 12 -17 15 -33 2 -17 8 -51 13 -76 7 -38 6 -48 -7 -58 -15 -11
-14 -12 1 -7 9 2 19 2 22 -1 9 -10 -15 -33 -27 -26 -6 3 -7 1 -3 -5 4 -6 12
-9 20 -6 7 3 13 -2 13 -10 0 -8 -5 -12 -11 -9 -6 4 -5 -1 3 -11 8 -9 15 -31
16 -49 0 -18 4 -38 9 -45 4 -7 2 -20 -6 -29 -11 -14 -11 -16 1 -8 11 6 13 4 8
-8 -3 -10 -2 -17 4 -17 15 0 39 -26 32 -34 -4 -3 -1 -6 6 -6 7 0 9 -5 5 -12
-4 -7 -3 -8 4 -4 13 8 106 -47 96 -57 -4 -4 0 -7 10 -7 21 0 48 -25 38 -35 -4
-5 -2 -5 5 -2 16 10 43 -3 43 -20 0 -8 4 -12 10 -8 5 3 18 -3 30 -15 11 -11
29 -20 39 -20 10 0 21 -7 25 -15 3 -8 12 -15 21 -15 8 0 15 -7 15 -16 0 -8 4
-13 9 -9 6 3 32 -14 58 -38 27 -24 65 -49 84 -57 39 -16 101 -69 94 -80 -8
-13 21 -31 39 -24 10 4 16 1 16 -7 0 -7 3 -9 7 -6 9 10 34 -14 26 -26 -3 -6
-1 -7 6 -3 6 4 19 2 27 -5 9 -7 23 -14 32 -16 9 -1 18 -7 20 -13 2 -5 8 -8 13
-4 5 3 9 1 9 -4 0 -6 11 -13 25 -16 14 -4 23 -11 20 -16 -3 -5 0 -12 6 -16 8
-4 9 -3 5 4 -8 13 39 36 54 27 4 -3 10 2 14 10 3 8 12 12 21 9 11 -5 14 -2 9
12 -4 11 -4 16 0 12 4 -3 16 2 26 12 12 12 27 17 42 13 18 -4 20 -3 8 6 -13 9
-12 11 3 11 11 0 15 5 11 11 -4 8 1 9 17 4 17 -4 20 -3 10 3 -14 10 2 28 17
18 4 -2 14 0 22 6 12 8 12 9 -2 4 -25 -8 -22 1 3 15 17 9 24 8 31 -2 6 -11 8
-9 6 6 -2 14 2 20 14 19 10 -1 15 2 13 7 -3 4 13 18 35 29 26 13 38 25 33 33
-4 7 -1 7 10 -2 9 -7 14 -18 10 -25 -3 -6 -2 -7 3 -3 5 5 9 16 9 25 0 9 6 16
13 14 8 -1 11 2 8 7 -6 8 65 61 83 61 5 0 14 7 21 15 7 8 21 15 31 15 17 0 24
11 20 33 -1 5 3 6 9 2 5 -3 13 1 16 9 3 9 10 13 16 10 5 -3 4 -12 -4 -21 -12
-15 -11 -15 9 -2 14 8 18 16 12 20 -8 4 -7 9 1 14 6 4 17 2 23 -4 6 -6 15 -11
21 -11 5 0 1 6 -10 14 -18 14 -18 15 6 24 14 5 35 8 48 5 13 -2 21 1 18 6 -3
5 1 12 10 15 22 8 26 8 19 -3 -3 -5 0 -13 7 -17 7 -4 10 -4 6 1 -4 4 -3 14 4
22 6 8 7 13 2 11 -5 -2 -9 2 -9 7 0 6 6 9 13 9 7 -1 11 1 8 4 -9 8 15 33 25
26 5 -3 9 2 9 12 0 14 3 14 15 4 13 -11 14 -10 8 6 -6 16 -4 17 9 6 13 -10 18
-9 29 5 13 16 12 17 -3 4 -10 -7 -18 -9 -18 -3 0 15 50 44 65 38 8 -3 17 0 21
6 4 7 3 8 -4 4 -7 -4 -12 -5 -12 -2 0 3 12 12 28 20 15 8 21 15 13 16 -11 0
-10 5 5 21 13 15 14 20 4 17 -10 -2 -14 5 -12 27 5 48 7 59 16 74 6 9 5 12 -1
8 -6 -4 -16 0 -22 7 -9 11 -9 16 0 22 8 5 9 3 4 -6 -5 -9 -4 -11 4 -6 6 4 9
12 5 17 -3 5 -8 45 -10 87 -3 42 -6 95 -7 117 -2 22 2 46 7 54 8 11 8 13 0 8
-7 -4 -11 2 -11 18 0 16 4 22 11 18 7 -5 7 -2 -1 8 -17 22 -20 139 -3 149 8 5
18 6 24 3 5 -3 6 -1 2 5 -5 8 -13 9 -25 3 -17 -9 -18 -4 -17 74 1 51 -3 85 -9
85 -5 0 -4 4 4 9 7 5 9 11 4 14 -14 9 -15 68 -1 85 10 12 10 14 1 8 -9 -5 -13
2 -13 23 0 18 5 31 13 31 8 0 9 3 1 8 -10 6 -22 45 -26 79 -1 7 -5 10 -9 8 -3
-3 -12 2 -19 10 -7 8 -19 15 -26 15 -8 0 -14 5 -14 11 0 5 -4 8 -9 5 -5 -4
-11 -3 -13 1 -1 5 -21 18 -43 30 -22 13 -39 27 -38 32 1 5 -7 7 -17 4 -18 -5
-25 4 -22 28 1 4 -10 7 -23 7 -13 0 -31 7 -40 16 -9 9 -20 14 -25 11 -5 -3
-11 3 -14 13 -4 10 -16 23 -29 29 -12 6 -35 17 -52 24 -45 21 -56 34 -42 50
10 11 9 11 -5 0 -13 -10 -22 -9 -47 3 -16 9 -34 24 -40 33 -5 10 -12 17 -15
15 -12 -5 -66 29 -61 38 3 6 -1 7 -10 4 -18 -7 -47 14 -38 29 3 5 1 7 -5 4
-13 -9 -42 2 -42 15 0 5 6 6 13 2 6 -4 8 -3 4 1 -11 13 -38 15 -31 3 3 -5 -3
-4 -15 4 -12 7 -21 20 -21 28 0 13 -1 13 -10 0 -5 -8 -10 -10 -10 -4 0 6 -12
16 -26 23 -20 9 -23 15 -15 25 8 9 7 13 -4 13 -8 0 -12 -4 -9 -9 10 -16 -16
-8 -36 12 -11 11 -20 18 -20 15 0 -3 -9 -1 -20 5 -11 6 -18 15 -15 20 3 4 -4
6 -15 3 -11 -3 -20 0 -20 6 0 13 -36 15 -45 1z m-175 -2170 c0 -5 -4 -10 -9
-10 -6 0 -13 5 -16 10 -3 6 1 10 9 10 9 0 16 -4 16 -10z"/>
<path d="M1134 2375 c0 -13 3 -22 7 -19 8 4 6 30 -2 38 -3 3 -5 -5 -5 -19z"/>
<path d="M1450 2320 c0 -5 5 -10 11 -10 5 0 7 5 4 10 -3 6 -8 10 -11 10 -2 0
-4 -4 -4 -10z"/>
<path d="M1550 2259 c0 -5 5 -7 10 -4 6 3 10 8 10 11 0 2 -4 4 -10 4 -5 0 -10
-5 -10 -11z"/>
<path d="M895 2220 c-3 -5 -1 -10 4 -10 6 0 11 5 11 10 0 6 -2 10 -4 10 -3 0
-8 -4 -11 -10z"/>
<path d="M830 2180 c0 -5 5 -10 11 -10 5 0 7 5 4 10 -3 6 -8 10 -11 10 -2 0
-4 -4 -4 -10z"/>
<path d="M775 2161 c-3 -5 -2 -12 3 -15 5 -3 9 1 9 9 0 17 -3 19 -12 6z"/>
<path d="M1735 2140 c3 -5 8 -10 11 -10 2 0 4 5 4 10 0 6 -5 10 -11 10 -5 0
-7 -4 -4 -10z"/>
<path d="M1830 2096 c7 -7 13 -7 20 0 6 6 3 10 -10 10 -13 0 -16 -4 -10 -10z"/>
<path d="M665 2080 c-3 -6 1 -7 9 -4 18 7 21 14 7 14 -6 0 -13 -4 -16 -10z"/>
<path d="M562 2044 c10 -10 20 -16 22 -13 3 3 -5 11 -17 18 -21 13 -21 12 -5
-5z"/>
<path d="M1930 2021 c0 -6 4 -13 10 -16 6 -3 7 1 4 9 -7 18 -14 21 -14 7z"/>
<path d="M210 1819 c0 -5 5 -7 10 -4 6 3 10 8 10 11 0 2 -4 4 -10 4 -5 0 -10
-5 -10 -11z"/>
<path d="M2255 1769 c-4 -6 -5 -12 -2 -15 2 -3 7 2 10 11 7 17 1 20 -8 4z"/>
<path d="M2267 1519 c7 -7 15 -10 18 -7 3 3 -2 9 -12 12 -14 6 -15 5 -6 -5z"/>
<path d="M215 1500 c-3 -5 -1 -10 4 -10 6 0 11 5 11 10 0 6 -2 10 -4 10 -3 0
-8 -4 -11 -10z"/>
<path d="M230 1359 c0 -5 5 -7 10 -4 6 3 10 8 10 11 0 2 -4 4 -10 4 -5 0 -10
-5 -10 -11z"/>
<path d="M2266 1318 c3 -5 10 -6 15 -3 13 9 11 12 -6 12 -8 0 -12 -4 -9 -9z"/>
<path d="M310 1006 c0 -2 7 -7 16 -10 8 -3 12 -2 9 4 -6 10 -25 14 -25 6z"/>
<path d="M2293 929 c-2 -23 3 -25 10 -4 4 8 3 16 -1 19 -4 3 -9 -4 -9 -15z"/>
<path d="M330 799 c0 -5 5 -7 10 -4 6 3 10 8 10 11 0 2 -4 4 -10 4 -5 0 -10
-5 -10 -11z"/>
<path d="M670 459 c0 -5 5 -7 10 -4 6 3 10 8 10 11 0 2 -4 4 -10 4 -5 0 -10
-5 -10 -11z"/>
<path d="M670 426 c0 -2 7 -7 16 -10 8 -3 12 -2 9 4 -6 10 -25 14 -25 6z"/>
<path d="M710 425 c0 -7 30 -13 34 -7 3 4 -4 9 -15 9 -10 1 -19 0 -19 -2z"/>
<path d="M793 387 c0 -7 9 -13 19 -13 10 0 18 1 18 3 0 1 -8 7 -18 12 -13 7
-19 6 -19 -2z"/>
<path d="M830 346 c0 -2 7 -7 16 -10 8 -3 12 -2 9 4 -6 10 -25 14 -25 6z"/>
<path d="M1707 339 c7 -7 15 -10 18 -7 3 3 -2 9 -12 12 -14 6 -15 5 -6 -5z"/>
<path d="M911 307 c2 -1 13 -9 24 -17 19 -14 19 -14 6 3 -7 9 -18 17 -24 17
-6 0 -8 -1 -6 -3z"/>
<path d="M973 265 c0 -8 4 -12 9 -9 5 3 6 10 3 15 -9 13 -12 11 -12 -6z"/>
<path d="M1115 160 c-3 -5 -1 -10 4 -10 6 0 11 5 11 10 0 6 -2 10 -4 10 -3 0
-8 -4 -11 -10z"/>
<path d="M1390 136 c0 -2 8 -10 18 -17 15 -13 16 -12 3 4 -13 16 -21 21 -21
13z"/>
</g>
</svg>
