<svg xmlns="http://www.w3.org/2000/svg" width="25.119" height="22.852" viewBox="0 0 25.119 22.852">
  <path id="icons8-telegram-app" d="M27.644,6.316a1.751,1.751,0,0,0-1.8-.136h0c-.732.294-20.716,8.866-21.53,9.216-.148.051-1.44.534-1.307,1.608a1.943,1.943,0,0,0,1.284,1.416l5.081,1.74c.337,1.122,1.58,5.262,1.854,6.146.171.551.451,1.276.94,1.425a1.168,1.168,0,0,0,1.133-.2l3.106-2.881,5.014,3.911.119.071a2.414,2.414,0,0,0,.978.226,1.81,1.81,0,0,0,.692-.135A2.1,2.1,0,0,0,24.3,27.613L28.041,8.145A1.726,1.726,0,0,0,27.644,6.316ZM13.854,20.855l-1.714,4.57-1.714-5.713L23.567,10Z" transform="translate(-2.999 -6.002)" fill="#0a3e38"/>
</svg>
